<mxfile host="app.diagrams.net" agent="Mozilla/5.0 (Windows NT 10.0; Win64; x64) AppleWebKit/537.36 (KHTML, like Gecko) Chrome/131.0.0.0 Safari/537.36" version="25.0.3">
  <diagram name="Page-1" id="8pcZmOPoeJZGjucj2uEr">
    <mxGraphModel dx="1687" dy="878" grid="1" gridSize="10" guides="1" tooltips="1" connect="1" arrows="1" fold="1" page="1" pageScale="1" pageWidth="850" pageHeight="1100" math="0" shadow="0">
      <root>
        <mxCell id="0" />
        <mxCell id="1" parent="0" />
        <mxCell id="U-sqVpH_tYPXmsbugxaD-8" style="edgeStyle=orthogonalEdgeStyle;rounded=0;orthogonalLoop=1;jettySize=auto;html=1;entryX=0.5;entryY=0;entryDx=0;entryDy=0;" edge="1" parent="1" source="U-sqVpH_tYPXmsbugxaD-1" target="U-sqVpH_tYPXmsbugxaD-3">
          <mxGeometry relative="1" as="geometry" />
        </mxCell>
        <mxCell id="U-sqVpH_tYPXmsbugxaD-1" value="&lt;font style=&quot;font-size: 24px;&quot;&gt;start&lt;/font&gt;" style="strokeWidth=2;html=1;shape=mxgraph.flowchart.start_1;whiteSpace=wrap;" vertex="1" parent="1">
          <mxGeometry x="375" y="40" width="100" height="60" as="geometry" />
        </mxCell>
        <mxCell id="U-sqVpH_tYPXmsbugxaD-2" value="&lt;font style=&quot;font-size: 24px;&quot;&gt;end&lt;/font&gt;" style="strokeWidth=2;html=1;shape=mxgraph.flowchart.start_1;whiteSpace=wrap;" vertex="1" parent="1">
          <mxGeometry x="367.5" y="770" width="100" height="60" as="geometry" />
        </mxCell>
        <mxCell id="U-sqVpH_tYPXmsbugxaD-3" value="input x1, y1" style="shape=parallelogram;perimeter=parallelogramPerimeter;whiteSpace=wrap;html=1;fixedSize=1;" vertex="1" parent="1">
          <mxGeometry x="288" y="160" width="275" height="50" as="geometry" />
        </mxCell>
        <mxCell id="U-sqVpH_tYPXmsbugxaD-10" style="edgeStyle=orthogonalEdgeStyle;rounded=0;orthogonalLoop=1;jettySize=auto;html=1;entryX=0.5;entryY=0;entryDx=0;entryDy=0;" edge="1" parent="1" source="U-sqVpH_tYPXmsbugxaD-4" target="U-sqVpH_tYPXmsbugxaD-5">
          <mxGeometry relative="1" as="geometry" />
        </mxCell>
        <mxCell id="U-sqVpH_tYPXmsbugxaD-4" value="input x2, y2" style="shape=parallelogram;perimeter=parallelogramPerimeter;whiteSpace=wrap;html=1;fixedSize=1;" vertex="1" parent="1">
          <mxGeometry x="280" y="280" width="275" height="50" as="geometry" />
        </mxCell>
        <mxCell id="U-sqVpH_tYPXmsbugxaD-11" style="edgeStyle=orthogonalEdgeStyle;rounded=0;orthogonalLoop=1;jettySize=auto;html=1;entryX=0.5;entryY=0;entryDx=0;entryDy=0;" edge="1" parent="1" source="U-sqVpH_tYPXmsbugxaD-5" target="U-sqVpH_tYPXmsbugxaD-6">
          <mxGeometry relative="1" as="geometry" />
        </mxCell>
        <mxCell id="U-sqVpH_tYPXmsbugxaD-5" value="midx = (x1 +x2) / 2" style="rounded=1;whiteSpace=wrap;html=1;absoluteArcSize=1;arcSize=14;strokeWidth=2;" vertex="1" parent="1">
          <mxGeometry x="327.5" y="410" width="180" height="40" as="geometry" />
        </mxCell>
        <mxCell id="U-sqVpH_tYPXmsbugxaD-12" style="edgeStyle=orthogonalEdgeStyle;rounded=0;orthogonalLoop=1;jettySize=auto;html=1;entryX=0.5;entryY=0;entryDx=0;entryDy=0;" edge="1" parent="1" source="U-sqVpH_tYPXmsbugxaD-6" target="U-sqVpH_tYPXmsbugxaD-7">
          <mxGeometry relative="1" as="geometry" />
        </mxCell>
        <mxCell id="U-sqVpH_tYPXmsbugxaD-6" value="midy = (y1 + y2) / 2" style="rounded=1;whiteSpace=wrap;html=1;absoluteArcSize=1;arcSize=14;strokeWidth=2;" vertex="1" parent="1">
          <mxGeometry x="327.5" y="530" width="180" height="40" as="geometry" />
        </mxCell>
        <mxCell id="U-sqVpH_tYPXmsbugxaD-7" value="output&lt;br&gt;&quot;Mid Point of A and B is&quot;, midx, midy" style="shape=parallelogram;perimeter=parallelogramPerimeter;whiteSpace=wrap;html=1;fixedSize=1;" vertex="1" parent="1">
          <mxGeometry x="280" y="640" width="275" height="50" as="geometry" />
        </mxCell>
        <mxCell id="U-sqVpH_tYPXmsbugxaD-9" style="edgeStyle=orthogonalEdgeStyle;rounded=0;orthogonalLoop=1;jettySize=auto;html=1;entryX=0.527;entryY=0.04;entryDx=0;entryDy=0;entryPerimeter=0;" edge="1" parent="1" source="U-sqVpH_tYPXmsbugxaD-3" target="U-sqVpH_tYPXmsbugxaD-4">
          <mxGeometry relative="1" as="geometry" />
        </mxCell>
        <mxCell id="U-sqVpH_tYPXmsbugxaD-13" style="edgeStyle=orthogonalEdgeStyle;rounded=0;orthogonalLoop=1;jettySize=auto;html=1;entryX=0.5;entryY=0;entryDx=0;entryDy=0;entryPerimeter=0;" edge="1" parent="1" source="U-sqVpH_tYPXmsbugxaD-7" target="U-sqVpH_tYPXmsbugxaD-2">
          <mxGeometry relative="1" as="geometry" />
        </mxCell>
      </root>
    </mxGraphModel>
  </diagram>
</mxfile>
